<svg id="Layer_1" data-name="Layer 1" xmlns="http://www.w3.org/2000/svg" viewBox="0 0 381.43 160.53"><title>nyrr_logo</title><path d="M148.81,62.43h30s-30.45,15.08-38.65,28.7c-9.24,15.38-3.95,27.65-3.95,27.65h-28l7.42-23.12L104.47,69.79l-20.11,49H59.45L46.54,89.44,28.32,118.78H.53L41.41,62.43H62.09L74.45,84.06,85.59,62.43h40.46l7.12,15.69ZM323.45,99.82h-5.34l9.55,19H272.8l-20.32-19h-5.55l4.08,19S219.22,108.52,216.27,79a21.48,21.48,0,0,1,5.55-16.55h27.25c11.7,0,19.87,2,25.75,5.2a27,27,0,0,1,6.31,4.65l-3.92-9.85H309.5c11.7,0,20.44,2,27.25,5.2A34.49,34.49,0,0,1,351,79.29l.1.15c5.42,7.84,3.7,13.61-3.3,17.07l33.59,22.27h-32l-25.78-19Zm-61-19.1,0-.15c-1-3.32-5-4.92-10.41-4.92H241.72l2.21,10.29h10.61C260.41,85.93,263.4,84,262.4,80.72Zm34.76,31.83L286.84,86.62c-.67,4.26-3.94,7.59-9.25,9.89Zm24.57-26.61c5.88,0,8.3-2,6.38-5.22l-.09-.15c-2-3.32-6.41-4.92-11.82-4.92H306l5.17,10.29Zm-94-55.56c0-3.5-.29-6.73-1.71-8.74s-5.42-2.42-7.47-4.39c2-2.08,3-5.34,3.57-8.36,1.47-7.81-6.08-11.06-10.5-7.38-2.2,1.83-1.79,6.32-1.8,6.73-.07,2.42.9,3.8-.32,6.24-3.3.81-6.66,0-9.4.46-2.43.41-4.17,2.21-5.8,3.42-2.71.4-5.87,1.69-7.22,2-3.68,2.15-5.37,6.21-8.75,9.85-1.08,1.16-2.29,1.72-3.36,3.25-2.46,3.5-3.45,4.61-.16,7.81,1,.79,2.08-.32,2.89-1.31s1-2.55.43-4.45c2.43-4.49,7.9-7,11.51-10.79,4.17.91,7.55-2.37,10.24-1.84,0,0-1,6.94-1,7.49-.26,3-1.58,5.67-3,8.31-1.16,2.21-2.71,4.2-3.72,6.48a36.92,36.92,0,0,0-2.27,7.63c-.42,2.7-.15,6-.33,8.89,0,.51.25,4.74.26,6.58,0,.44-.09,4-.09,4.2,0,1.12-1.19-3.17-1.48-3.21-.62-.06-.78-.43-1.3-.85-.8-.64-1-1.66-2.19-1.7a2,2,0,0,0-2.07,2c.21,2.63-1.06,7.85-1.11,8.56,0,.88-.61,2.49.57,2.79,2.19.56,4.65-3.07,4.29-6.14,1.24.13,2.1,1.57,3.3,1.74.36,5.25-2.46,4.91-2.61,14.79,0,1.44,1.12,4.48,1.39,5.89.6,3.08.32,4.32.5,7.43.14,2.54.6,4.4-.62,6.78-.52,1-1.52,1.92-1.5,2.93,0,1.65,2.86,4.87,3.8,4.87,1.11,0,4.15.11,5.19,0s1.76-.08,1.85-.67c.12-1.48-1-2.12-2.18-2.12-1.85-3.78-1.91-9.5-1.64-15a73.23,73.23,0,0,1,1.21-8c.39-2.42.48-4.88,1-7.27a40.39,40.39,0,0,0,1.19-6.67c.11-.05,1.27-9.5,1.47-9.52s.19,9.37.44,9.36c.75,0,.87-.05,1.29-.54,1.66-1.91,2.68-4.51,3.78-6.77a37,37,0,0,0,3.06-8.51,134.68,134.68,0,0,1,4.79-18.46c.53-1.46,5.45-8.19,6.39-9.86.36-.64,3.41-4.73,3.08-5.28,1.27,2.06,2.34,5.56,3.52,7.7-.77-.27-3.24-.83-4.63-.05s-.59,2.62.15,4.06a2.51,2.51,0,0,0,3.36.91c.66-.39,1-.81,1.66-.8,1.57,0,3.52,1.26,4.54.07C231.83,39.2,228.5,31.9,227.77,30.38ZM0,160.23H3.76v-11l8.39,11h3.24V142.91H11.63v10.66L3.51,142.91H0Zm21.15,0H34.34v-3.39h-9.4v-3.64H33.1v-3.39H24.94V146.3h9.28v-3.39H21.15Zm22.74.12H47.2L51.11,149,55,160.36h3.32l5.91-17.44h-4l-3.59,11.73L52.8,142.87H49.53l-3.88,11.78-3.59-11.73H38Zm35.45-.12h3.81v-6.9l6.66-10.42H85.48l-4.21,7-4.13-7H72.68l6.66,10.49Zm20.14.3a9,9,0,0,0,9.23-9v0a9.21,9.21,0,0,0-18.41,0v0A8.87,8.87,0,0,0,99.48,160.53Zm0-3.51a5.26,5.26,0,0,1-5.25-5.44v0a5.18,5.18,0,0,1,5.2-5.39,5.26,5.26,0,0,1,5.25,5.44v0A5.18,5.18,0,0,1,99.53,157Zm14.13,3.22h3.81v-5.54h3l3.71,5.54h4.45L124.39,154a5.38,5.38,0,0,0,3.71-5.37v0a5.44,5.44,0,0,0-1.48-4,6.9,6.9,0,0,0-5-1.76h-7.92Zm3.81-8.91v-5h3.79c1.86,0,3,.84,3,2.47v0c0,1.46-1.06,2.45-2.92,2.45Zm15.64,8.91h3.81v-5.3l2-2.08,5.37,7.37h4.58l-7.37-10,7.05-7.35h-4.6l-7,7.57v-7.57H133.1Zm27.78,0h3.81v-5.54h3l3.71,5.54h4.45L171.62,154a5.38,5.38,0,0,0,3.71-5.37v0a5.44,5.44,0,0,0-1.48-4,6.9,6.9,0,0,0-5-1.76h-7.92Zm3.81-8.91v-5h3.79c1.86,0,3,.84,3,2.47v0c0,1.46-1.06,2.45-2.92,2.45Zm23,9.2a9,9,0,0,0,9.23-9v0a9.21,9.21,0,0,0-18.41,0v0A8.87,8.87,0,0,0,187.73,160.53Zm0-3.51a5.26,5.26,0,0,1-5.25-5.44v0a5.18,5.18,0,0,1,5.2-5.39,5.26,5.26,0,0,1,5.25,5.44v0A5.18,5.18,0,0,1,187.78,157Zm11.11,3.22h3.88l1.58-3.88h7.32l1.58,3.88h4l-7.42-17.44h-3.51Zm6.83-7.25,2.3-5.62,2.3,5.62Zm15.78,7.25h6.75c5.44,0,9.21-3.79,9.21-8.66v0c0-4.87-3.76-8.61-9.21-8.61H221.5Zm3.81-3.44V146.35h2.94a5,5,0,0,1,5.22,5.22v0a4.94,4.94,0,0,1-5.22,5.17Zm25.16,3.44h3.81v-5.54h3l3.71,5.54h4.45L261.21,154a5.38,5.38,0,0,0,3.71-5.37v0a5.44,5.44,0,0,0-1.48-4,6.9,6.9,0,0,0-5-1.76h-7.92Zm3.81-8.91v-5h3.79c1.86,0,3,.84,3,2.47v0c0,1.46-1.06,2.45-2.92,2.45Zm22.24,9.18c4.65,0,7.6-2.57,7.6-7.82v-9.77h-3.81v9.92c0,2.75-1.41,4.16-3.74,4.16s-3.74-1.46-3.74-4.28v-9.8H269v9.9C269,157.91,271.87,160.51,276.52,160.51Zm13.09-.27h3.76v-11l8.39,11H305V142.91h-3.76v10.66l-8.12-10.66h-3.51Zm21.18,0h3.76v-11l8.39,11h3.24V142.91h-3.76v10.66l-8.12-10.66h-3.51Zm21.15,0h13.19v-3.39h-9.4v-3.64h8.16v-3.39h-8.16V146.3H345v-3.39H331.94Zm18.21,0H354v-5.54h3l3.71,5.54h4.45L360.89,154a5.38,5.38,0,0,0,3.71-5.37v0a5.44,5.44,0,0,0-1.48-4,6.9,6.9,0,0,0-5-1.76h-7.92Zm3.81-8.91v-5h3.79c1.86,0,3,.84,3,2.47v0c0,1.46-1.06,2.45-2.92,2.45Zm20.76,9.16c3.74,0,6.36-1.93,6.36-5.37v-.05c0-3-2-4.28-5.49-5.2-3-.77-3.74-1.14-3.74-2.28v0c0-.84.77-1.51,2.23-1.51a8.12,8.12,0,0,1,4.5,1.71l2-2.87a10,10,0,0,0-6.43-2.2c-3.54,0-6.06,2.08-6.06,5.22v0c0,3.44,2.25,4.4,5.74,5.3,2.9.74,3.49,1.24,3.49,2.2v0c0,1-.94,1.63-2.5,1.63a8,8,0,0,1-5.17-2.1l-2.25,2.7A11,11,0,0,0,374.71,160.48Z" fill="#fff"/></svg>